# xmcd CD database file
#
# Track frame offsets:
#	150
#	13767
#	28226
#	42037
#	53869
#	67298
#	80732
#	91882
#	105830
#	125861
#	137554
#	149170
#
# Disc length: 2156 seconds
#
# Revision: 0
# Processed by: cddbd v1.5.2PL0 Copyright (c) Steve Scherf et al.
# Submitted via: CDex 1.51
#
DISCID=b0086a0c
DTITLE=Miles Davis - Masters of Jazz
DYEAR=2005
DGENRE=Jazz
TTITLE0=Boplicity
TTITLE1=Venus de Milo
TTITLE2=A Night in Tunisia
TTITLE3=Milestones
TTITLE4=Orinithology
TTITLE5=Dexterity
TTITLE6=Constellation (ft. The Charlie Parker Allstars)
TTITLE7=Rocker
TTITLE8=Willy The Wailer
TTITLE9=Donna Lee
TTITLE10=Budo
TTITLE11=Chasin The Bird
EXTD=YEAR: 2005
EXTT0=
EXTT1=
EXTT2=
EXTT3=
EXTT4=
EXTT5=
EXTT6=
EXTT7=
EXTT8=
EXTT9=
EXTT10=
EXTT11=
PLAYORDER=
